# xmcd
# 
# Track frame offsets:
#     150
#     27177
#     41017
#     55860
# 
# Disc length: 1103
# 
# Revision: 2
# Processed by: cddbd v1.5.2PL0 Copyright (c) Steve Scherf et al.
# Submitted via: BonkEnc v1.0
# 
DISCID=2b044d04
DTITLE=スキマスイッチ - 雨待ち風
DYEAR=2005
DGENRE=J-Pop
TTITLE0=雨待ち風
TTITLE1=青春騎士（ナイト）
TTITLE2=安曇野にて(instrumental)
TTITLE3=雨待ち風（backing track）
EXTD=
EXTT0=
EXTT1=
EXTT2=
EXTT3=
PLAYORDER=
